<svg width="46" height="46" viewBox="0 0 46 46" fill="none"
    xmlns="http://www.w3.org/2000/svg">
    <path fill-rule="evenodd" clip-rule="evenodd" d="M24.9167 26.8332H26.8334V28.7498H24.9167V26.8332ZM26.8334 28.7498H28.7501V30.6665H26.8334V28.7498ZM26.8334 30.6665H28.7501V32.5832H26.8334V30.6665ZM30.6667 30.6665H32.5834V32.5832H30.6667V30.6665ZM30.6667 32.5832H32.5834V34.4998H30.6667V32.5832ZM24.9167 30.6665H26.8334V32.5832H24.9167V30.6665ZM28.7501 30.6665H30.6667V32.5832H28.7501V30.6665ZM28.7501 32.5832H30.6667V34.4998H28.7501V32.5832ZM34.5001 30.6665H36.4167V32.5832H34.5001V30.6665ZM34.5001 28.7498H36.4167V30.6665H34.5001V28.7498ZM36.4167 26.8332H38.3334V28.7498H36.4167V26.8332ZM32.5834 30.6665H34.5001V32.5832H32.5834V30.6665ZM32.5834 32.5832H34.5001V34.4998H32.5834V32.5832ZM30.6667 34.4998H32.5834V36.4165H30.6667V34.4998ZM28.7501 34.4998H30.6667V36.4165H28.7501V34.4998ZM32.5834 34.4998H34.5001V36.4165H32.5834V34.4998ZM34.5001 34.4998H36.4167V36.4165H34.5001V34.4998ZM30.6667 36.4165H32.5834V38.3332H30.6667V36.4165ZM26.8334 36.4165H28.7501V38.3332H26.8334V36.4165ZM28.7501 36.4165H30.6667V38.3332H28.7501V36.4165ZM24.9167 36.4165H26.8334V38.3332H24.9167V36.4165ZM24.9167 38.3332H26.8334V40.2498H24.9167V38.3332ZM26.8334 40.2498H28.7501V42.1665H26.8334V40.2498ZM28.7501 40.2498H30.6667V42.1665H28.7501V40.2498ZM32.5834 40.2498H34.5001V42.1665H32.5834V40.2498ZM34.5001 40.2498H36.4167V42.1665H34.5001V40.2498ZM32.5834 36.4165H34.5001V38.3332H32.5834V36.4165ZM34.5001 36.4165H36.4167V38.3332H34.5001V36.4165ZM36.4167 34.4998H38.3334V36.4165H36.4167V34.4998ZM36.4167 32.5832H38.3334V34.4998H36.4167V32.5832ZM36.4167 38.3332H38.3334V40.2498H36.4167V38.3332ZM36.4167 36.4165H38.3334V38.3332H36.4167V36.4165ZM38.3334 34.4998H40.2501V36.4165H38.3334V34.4998ZM38.3334 32.5832H40.2501V34.4998H38.3334V32.5832ZM40.2501 38.3332H42.1667V40.2498H40.2501V38.3332ZM40.2501 34.4998H42.1667V36.4165H40.2501V34.4998ZM40.2501 36.4165H42.1667V38.3332H40.2501V36.4165ZM36.4167 30.6665H38.3334V32.5832H36.4167V30.6665ZM24.9167 32.5832H26.8334V34.4998H24.9167V32.5832ZM23.0001 32.5832H24.9167V34.4998H23.0001V32.5832ZM23.0001 34.4998H24.9167V36.4165H23.0001V34.4998ZM26.8334 34.4998H28.7501V36.4165H26.8334V34.4998ZM21.0834 34.4998H23.0001V36.4165H21.0834V34.4998ZM24.9167 34.4998H26.8334V36.4165H24.9167V34.4998ZM21.0834 36.4165H23.0001V38.3332H21.0834V36.4165ZM21.0834 38.3332H23.0001V40.2498H21.0834V38.3332ZM21.0834 1.9165H23.0001V3.83317H21.0834V1.9165ZM23.0001 3.83317H24.9167V5.74984H23.0001V3.83317ZM21.0834 7.6665H23.0001V9.58317H21.0834V7.6665ZM23.0001 9.58317H24.9167V11.4998H23.0001V9.58317ZM21.0834 11.4998H23.0001V13.4165H21.0834V11.4998ZM23.0001 11.4998H24.9167V13.4165H23.0001V11.4998ZM23.0001 13.4165H24.9167V15.3332H23.0001V13.4165ZM23.0001 15.3332H24.9167V17.2498H23.0001V15.3332ZM21.0834 17.2498H23.0001V19.1665H21.0834V17.2498ZM23.0001 17.2498H24.9167V19.1665H23.0001V17.2498ZM21.0834 19.1665H23.0001V21.0832H21.0834V19.1665ZM1.91675 21.0832H3.83341V22.9998H1.91675V21.0832ZM3.83341 22.9998H5.75008V24.9165H3.83341V22.9998ZM7.66675 21.0832H9.58342V22.9998H7.66675V21.0832ZM7.66675 22.9998H9.58342V24.9165H7.66675V22.9998ZM9.58342 21.0832H11.5001V22.9998H9.58342V21.0832ZM11.5001 22.9998H13.4167V24.9165H11.5001V22.9998ZM13.4167 21.0832H15.3334V22.9998H13.4167V21.0832ZM15.3334 22.9998H17.2501V24.9165H15.3334V22.9998ZM15.3334 21.0832H17.2501V22.9998H15.3334V21.0832ZM17.2501 21.0832H19.1667V22.9998H17.2501V21.0832ZM19.1667 21.0832H21.0834V22.9998H19.1667V21.0832ZM21.0834 22.9998H23.0001V24.9165H21.0834V22.9998ZM24.9167 22.9998H26.8334V24.9165H24.9167V22.9998ZM26.8334 21.0832H28.7501V22.9998H26.8334V21.0832ZM28.7501 21.0832H30.6667V22.9998H28.7501V21.0832ZM30.6667 21.0832H32.5834V22.9998H30.6667V21.0832ZM28.7501 24.9165H30.6667V26.8332H28.7501V24.9165ZM24.9167 42.1665H26.8334V44.0832H24.9167V42.1665ZM23.0001 42.1665H24.9167V44.0832H23.0001V42.1665ZM23.0001 24.9165H24.9167V26.8332H23.0001V24.9165ZM21.0834 24.9165H23.0001V26.8332H21.0834V24.9165ZM21.0834 26.8332H23.0001V28.7498H21.0834V26.8332ZM21.0834 28.7498H23.0001V30.6665H21.0834V28.7498ZM42.1667 26.8332H44.0834V28.7498H42.1667V26.8332ZM40.2501 28.7498H42.1667V30.6665H40.2501V28.7498ZM42.1667 32.5832H44.0834V34.4998H42.1667V32.5832ZM32.5834 24.9165H34.5001V26.8332H32.5834V24.9165ZM34.5001 22.9998H36.4167V24.9165H34.5001V22.9998ZM42.1667 22.9998H44.0834V24.9165H42.1667V22.9998ZM42.1667 24.9165H44.0834V26.8332H42.1667V24.9165ZM40.2501 24.9165H42.1667V26.8332H40.2501V24.9165ZM42.1667 40.2498H44.0834V42.1665H42.1667V40.2498ZM40.2501 42.1665H42.1667V44.0832H40.2501V42.1665ZM36.4167 42.1665H38.3334V44.0832H36.4167V42.1665ZM42.1667 42.1665H44.0834V44.0832H42.1667V42.1665Z" fill="currentColor"/>
    <path fill-rule="evenodd" clip-rule="evenodd" d="M28.7502 3.83301H42.1668V17.2497H28.7502V3.83301ZM3.8335 3.83301H17.2502V17.2497H3.8335V3.83301ZM3.8335 28.7497H17.2502V42.1663H3.8335V28.7497ZM34.5002 9.58301H36.4168V11.4997H34.5002V9.58301ZM9.5835 9.58301H11.5002V11.4997H9.5835V9.58301ZM9.5835 34.4997H11.5002V36.4163H9.5835V34.4997Z" stroke="currentColor" stroke-width="2"/>
</svg>
