<svg width="307" height="175" viewBox="0 0 307 175" fill="none"
    xmlns="http://www.w3.org/2000/svg">
    <path d="M237.718 1.05853C235.856 1.94804 229.139 5.66786 222.745 9.46854C216.351 13.2692 209.471 16.989 207.448 17.7977C200.892 20.3045 199.354 22.8922 202.672 25.8842C203.644 26.6929 205.586 29.7657 207.043 32.6769C208.5 35.5881 210.685 38.8227 211.818 39.8739C212.951 41.006 213.923 42.0573 213.923 42.2999C213.923 42.6233 212.709 43.432 211.252 44.2406C208.662 45.6962 208.419 45.6962 204.129 43.9981C200.811 42.6233 198.706 42.2999 195.145 42.6233C190.046 43.1085 181.872 46.5049 177.015 50.1438C173.778 52.6507 167.546 60.9798 165.765 65.3465C164.551 68.0959 164.389 68.2577 160.585 68.2577C152.249 68.2577 126.511 71.4114 117.203 73.5948C114.532 74.1609 109.19 74.7269 105.305 74.7269C101.339 74.7269 93.0029 75.293 86.6898 75.9399C43.4695 80.3875 31.6528 81.0344 20.8882 79.5788C16.9222 79.0936 11.0948 78.5276 8.10013 78.285L2.59642 77.9615L1.38237 80.9535C-0.236371 84.7542 -0.479181 94.8624 0.896746 97.531C2.75829 101.008 6.48139 102.625 12.7945 102.625C18.3791 102.625 18.46 102.625 18.2172 104.728C17.7316 109.256 23.3163 112.734 31.1671 112.734H34.7284L34.4046 115.483C34.1618 117.586 34.5665 118.799 36.428 120.82C38.4515 123.084 39.5036 123.57 43.3886 123.893C47.5164 124.217 48.002 124.459 48.002 125.996C48.002 129.311 54.8007 133.759 59.7379 133.759C60.871 133.759 61.6803 134.001 61.6803 134.325C61.1947 137.398 65.4034 140.228 70.5025 140.228C72.364 140.228 75.3587 140.956 77.1393 141.845C81.5908 144.109 95.0263 147.506 102.068 148.072L107.976 148.557L104.901 151.711C103.201 153.409 99.1541 156.886 95.9166 159.393C90.4939 163.517 89.6036 163.921 86.1233 163.841C84.0189 163.841 81.8336 164.083 81.2671 164.487C79.4865 165.539 83.2905 167.075 86.2851 166.509C88.8751 166.105 88.8751 166.105 87.0136 167.399C85.233 168.773 84.5855 170.957 86.0423 170.957C86.447 170.957 87.4992 170.148 88.4704 169.178C90.2511 167.237 90.1701 167.237 91.546 170.391C92.5982 172.817 94.9454 173.383 94.9454 171.118C94.9454 170.391 94.3788 169.016 93.7313 168.207C91.8698 165.7 92.2745 164.73 96.4023 161.981C98.5066 160.525 102.392 157.371 105.062 154.945C111.618 149.123 112.832 148.557 121.088 148.153L128.13 147.829L125.135 150.255C123.435 151.63 118.417 155.916 113.966 159.716C106.357 166.267 105.71 166.671 102.796 166.267C100.044 165.943 99.7207 166.105 99.9635 167.399C100.125 168.369 101.016 169.016 102.392 169.178C104.577 169.42 104.577 169.501 103.363 171.361C102.149 173.221 102.392 175 103.848 175C104.172 175 104.901 173.868 105.386 172.574C106.196 170.148 106.277 170.067 108.219 171.361C110.323 172.736 113.966 172.736 113.966 171.361C113.966 170.876 112.913 170.067 111.699 169.501C108.947 168.207 108.947 167.48 111.78 165.62C114.532 163.841 123.84 155.835 129.91 150.093C132.743 147.263 135.899 145.161 138.408 144.271C143.427 142.492 160.504 134.81 162.204 133.516C162.851 132.95 167.789 127.451 173.211 121.225C184.785 107.801 186.08 106.507 196.359 98.7439C207.448 90.3339 218.536 79.9832 220.398 76.2634C221.288 74.5652 222.016 71.5732 222.016 69.7132C222.016 66.3978 222.178 66.1552 225.658 64.2953C227.682 63.244 229.462 62.5162 229.543 62.678C232.376 66.6404 242.17 77.6381 247.754 83.056C254.634 89.687 255.2 90.1722 256.981 89.2018C258.033 88.6358 263.213 84.3499 268.555 79.6597C278.429 70.9262 282.557 68.0151 296.64 59.8477C304.734 55.1575 307 52.9741 307 49.9821C307 45.5345 274.059 17.3933 256.819 7.04257C244.193 -0.477921 242.412 -1.04398 237.718 1.05853ZM248.159 4.85921C256.414 8.90247 273.007 20.1428 281.1 27.0163C294.131 38.1758 306.353 50.8716 302.548 49.3352C301.658 49.0117 295.831 48.2031 289.599 47.5561C283.366 46.9092 274.059 45.4536 268.96 44.3215C263.861 43.1894 258.762 42.0573 257.79 41.8956C256.334 41.5721 256.01 41.1678 256.495 40.1165C256.819 39.3887 257.224 37.3671 257.467 35.7498C257.709 33.1621 257.386 32.3534 255.281 30.1701C253.015 27.9058 252.368 27.7441 248.887 28.0676C246.783 28.2293 244.274 28.7145 243.303 29.038C240.794 29.8466 239.499 26.9355 239.58 20.4662C239.58 15.0482 241.36 1.94804 242.008 1.94804C242.251 1.94804 245.002 3.2419 248.159 4.85921ZM239.499 4.13141C238.689 6.79997 237.394 16.9081 237.394 21.1131V25.399H233.59C229.058 25.399 217.565 24.186 209.552 22.8922L204.048 22.0027L211.98 17.7168C216.432 15.3717 224.202 11.0858 229.301 8.09381C234.4 5.18266 238.932 2.7567 239.256 2.7567C239.661 2.7567 239.741 3.40363 239.499 4.13141ZM212.061 25.8033C215.218 26.4503 222.421 27.3398 228.087 27.825C239.418 28.7145 241.198 29.5231 239.741 33.3238C239.337 34.3751 239.013 36.0732 239.013 37.0436C239.013 41.8147 245.893 45.6962 250.992 43.9172C252.934 43.2703 254.148 43.2703 256.01 44.1598C258.438 45.1302 258.519 45.3728 258.114 48.85C257.871 50.8716 257.062 58.8773 256.334 66.6404C255.686 74.4034 254.877 82.0048 254.553 83.4604L253.986 86.1289L245.002 76.1825C240.065 70.6836 233.186 62.9206 229.786 58.7964L223.635 51.3568L227.682 43.1085C233.59 30.9787 233.267 30.4935 223.797 36.7202C220.398 38.9035 217.16 40.7634 216.674 40.7634C215.622 40.7634 210.928 35.022 205.829 27.5015C203.725 24.3478 203.482 23.62 204.696 24.1052C205.505 24.4286 208.824 25.2373 212.061 25.8033ZM204.615 46.7475C216.594 52.4081 222.745 64.9422 218.293 74.4034C216.513 78.1233 203.563 90.2531 192.555 98.5013C182.438 106.103 175.073 112.895 170.621 118.718C162.204 130.039 146.664 139.662 130.719 143.624C120.036 146.293 102.311 146.212 91.546 143.462C83.0477 141.36 82.8049 140.632 90.4939 139.824C100.449 138.691 129.505 129.311 140.108 123.731C150.873 117.99 154.839 111.116 153.22 100.927C152.492 96.7223 149.982 92.2747 148.849 93.4068C148.687 93.5685 149.011 95.9136 149.659 98.5822C152.411 110.55 149.659 115.807 137.275 122.357C132.176 124.944 101.906 134.729 93.0029 136.508C85.9614 137.964 70.5025 138.206 66.6984 136.912C63.4609 135.78 63.6228 133.597 67.0222 132.95C71.3118 132.06 77.9486 128.098 77.9486 126.4C77.9486 126.076 74.954 126.885 71.3118 128.26C65.6462 130.281 63.7038 130.605 59.0094 130.362C54.396 130.12 53.182 129.715 51.9679 128.179C49.7017 125.43 50.0254 124.459 53.9104 123.489C57.7144 122.437 65.4844 117.747 64.675 117.02C64.4322 116.696 62.4897 117.343 60.3044 118.394C57.0669 120.092 55.2863 120.335 48.3258 120.416C38.7752 120.416 37.2374 119.688 37.6421 115.24C37.8849 112.329 37.8849 112.329 42.7411 111.682C52.4535 110.308 56.0957 109.337 57.8763 107.801L59.7379 106.184L57.3097 106.669C50.7539 107.801 38.4515 109.499 32.4621 109.903C26.5537 110.389 25.4206 110.227 23.0734 108.771C19.9169 106.75 19.6741 104.405 22.345 100.523C25.9062 95.1859 37.6421 90.8191 56.5004 87.6654C59.6569 87.0993 67.265 85.482 73.4971 84.0264C79.7293 82.49 95.9166 79.498 109.514 77.2337C137.437 72.7053 138.085 72.6244 150.792 71.4923C155.891 71.0071 160.909 70.441 161.88 70.1984C163.58 69.7132 163.742 69.9558 163.742 73.1905C163.742 77.7998 165.037 80.064 165.765 76.6677C167.465 68.8237 168.193 66.5595 170.379 62.3545C175.559 52.6507 187.375 45.3728 198.545 44.8876C199.678 44.8876 202.43 45.6962 204.615 46.7475ZM271.145 47.5561C276.891 48.6882 285.875 49.9821 291.217 50.4673C296.559 51.0333 301.415 51.6803 302.063 52.0846C303.52 52.8932 299.958 55.5618 290.813 60.6563C281.748 65.67 276.082 69.7132 265.318 79.0936C260.461 83.2986 256.414 86.695 256.334 86.6141C256.253 86.5333 256.495 84.5925 256.819 82.3283C257.548 77.9615 258.843 64.6996 259.733 52.6507C259.976 48.7691 260.38 45.6154 260.542 45.6154C260.704 45.6154 265.479 46.5049 271.145 47.5561ZM8.99043 80.7918C15.0607 82.8943 33.1906 84.0264 43.8742 82.8943C64.5131 80.7918 68.0743 80.3875 73.4971 79.9832C81.6717 79.4171 77.7868 80.4684 56.1766 84.9159C36.428 88.8783 28.4962 91.6278 23.0734 96.1562C19.9169 98.9057 19.5932 98.9865 13.2801 98.9865C8.58575 98.9865 6.07671 98.5822 4.70078 97.6927C2.83923 96.4797 2.67736 95.9136 2.67736 89.5253C2.67736 83.2178 3.48673 79.5788 4.94359 79.5788C5.26734 79.5788 7.12888 80.1449 8.99043 80.7918Z" fill="white"/>
</svg>
