<svg width="46" height="46" viewBox="0 0 46 46" fill="none"
    xmlns="http://www.w3.org/2000/svg">
    <path d="M29.164 15.3726L25.3101 19.2266L25.2827 11.5L29.164 15.3726ZM25.2813 35.1196L29.1539 31.2469L25.3 27.393L25.2813 35.1196ZM40.25 23.3048C40.25 41.7766 33.7899 46 23.6196 46C13.4492 46 5.75 41.7766 5.75 23.3048C5.75 4.83287 13.2422 0 23.414 0C33.5858 0 40.25 4.84294 40.25 23.3048ZM26.0101 23.3048L33.143 15.3453L21.9032 3.27894V19.1719L15.272 12.5422L12.8455 14.9586L21.1744 23.3134L12.8455 31.6696L15.2619 34.086L21.8931 27.4563L22.1001 42.7297L33.5455 31.2743L26.0101 23.3048Z" fill="currentColor"/>
</svg>
