<svg width="30" height="26" viewBox="0 0 30 26" fill="none"
    xmlns="http://www.w3.org/2000/svg">
    <path d="M0 4.28459C0 3.14824 0.395088 2.05844 1.09835 1.25493C1.80161 0.45141 2.75544 0 3.75 0H26.25C27.2446 0 28.1984 0.45141 28.9016 1.25493C29.6049 2.05844 30 3.14824 30 4.28459V6.42688H0V4.28459Z" fill="currentColor"/>
    <path fill-rule="evenodd" clip-rule="evenodd" d="M0 10.7114V21.4228C0 22.5591 0.395088 23.6489 1.09835 24.4524C1.80161 25.2559 2.75544 25.7073 3.75 25.7073H26.25C27.2446 25.7073 28.1984 25.2559 28.9016 24.4524C29.6049 23.6489 30 22.5591 30 21.4228V10.7114H0ZM5.625 14.996C5.12772 14.996 4.65081 15.2217 4.29917 15.6234C3.94754 16.0252 3.75 16.5701 3.75 17.1382V19.2805C3.75 19.8487 3.94754 20.3936 4.29917 20.7953C4.65081 21.1971 5.12772 21.4228 5.625 21.4228H7.5C7.99728 21.4228 8.47419 21.1971 8.82582 20.7953C9.17746 20.3936 9.375 19.8487 9.375 19.2805V17.1382C9.375 16.5701 9.17746 16.0252 8.82582 15.6234C8.47419 15.2217 7.99728 14.996 7.5 14.996H5.625Z" fill="currentColor"/>
</svg>
