<svg width="32" height="32" viewBox="0 0 32 32" fill="none"
    xmlns="http://www.w3.org/2000/svg">
    <path d="M30 0H1.25C0.558594 0 0 0.558594 0 1.25V30C0 30.6914 0.558594 31.25 1.25 31.25H30C30.6914 31.25 31.25 30.6914 31.25 30V1.25C31.25 0.558594 30.6914 0 30 0ZM26.3906 9.12109H23.8945C21.9375 9.12109 21.5586 10.0508 21.5586 11.418V14.4297H26.2305L25.6211 19.1445H21.5586V31.25H16.6875V19.1484H12.6133V14.4297H16.6875V10.9531C16.6875 6.91797 19.1523 4.71875 22.7539 4.71875C24.4805 4.71875 25.9609 4.84766 26.3945 4.90625V9.12109H26.3906Z" fill="#013976"/>
</svg>
