<svg width="32" height="32" viewBox="0 0 40 40" fill="none"
    xmlns="http://www.w3.org/2000/svg">
    <path d="M39.6328 16.3596H20.4071V24.099H31.3902C30.9166 26.6007 29.4798 28.7166 27.3141 30.1342C25.4836 31.3329 23.1475 32.0417 20.4018 32.0417C15.0858 32.0417 10.5893 28.5238 8.98231 23.7967C8.57789 22.598 8.34375 21.316 8.34375 19.9974C8.34375 18.6788 8.57789 17.3967 8.98231 16.198C10.5947 11.4762 15.0911 7.95831 20.4071 7.95831C23.403 7.95831 26.0902 8.96938 28.2081 10.9498L34.0615 5.21173C30.5228 1.98046 25.9093 0 20.4071 0C12.4305 0 5.5288 4.48208 2.17108 11.0176C0.787548 13.7173 0 16.7713 0 20.0026C0 23.2339 0.787548 26.2827 2.17108 28.9824C5.5288 35.5179 12.4305 40 20.4071 40C25.9199 40 30.5388 38.2072 33.9125 35.1531C37.7704 31.6717 40 26.5433 40 20.4508C40 19.0332 39.8723 17.673 39.6328 16.3596Z" fill="#013976"/>
</svg>
