<svg width="27" height="27" viewBox="0 0 27 27" fill="none"
    xmlns="http://www.w3.org/2000/svg">
    <rect x="0.5" y="0.5" width="26" height="26" fill="white"/>
    <path d="M13.3903 6.72849C12.7227 6.72849 12.0702 6.92643 11.5152 7.29728C10.9602 7.66812 10.5276 8.19523 10.2722 8.81193C10.0167 9.42863 9.94988 10.1072 10.0801 10.7619C10.2103 11.4166 10.5318 12.018 11.0038 12.49C11.4758 12.962 12.0771 13.2834 12.7318 13.4136C13.3865 13.5439 14.0651 13.477 14.6818 13.2216C15.2985 12.9661 15.8256 12.5336 16.1965 11.9785C16.5673 11.4235 16.7653 10.771 16.7653 10.1035C16.7642 9.20869 16.4083 8.35084 15.7756 7.71812C15.1429 7.08541 14.2851 6.7295 13.3903 6.72849ZM13.3903 11.791C13.0565 11.791 12.7302 11.692 12.4527 11.5066C12.1752 11.3212 11.9589 11.0576 11.8312 10.7493C11.7035 10.4409 11.6701 10.1016 11.7352 9.77427C11.8003 9.44693 11.961 9.14624 12.197 8.91024C12.433 8.67424 12.7337 8.51352 13.061 8.44841C13.3884 8.3833 13.7277 8.41672 14.036 8.54444C14.3444 8.67216 14.6079 8.88845 14.7934 9.16596C14.9788 9.44347 15.0778 9.76973 15.0778 10.1035C15.0772 10.5509 14.8993 10.9798 14.5829 11.2962C14.2666 11.6125 13.8377 11.7905 13.3903 11.791Z" fill="#FFC72C"/>
    <path d="M19.8759 3.61309C18.2724 2.00998 16.1319 1.05768 13.8676 0.939959C11.6032 0.822242 9.37552 1.54746 7.61443 2.97565C5.85333 4.40383 4.68368 6.43374 4.33123 8.6736C3.97878 10.9135 4.46851 13.2045 5.7059 15.1045L12.0819 24.8927C12.2237 25.1105 12.4177 25.2894 12.6463 25.4133C12.8748 25.5372 13.1306 25.602 13.3906 25.602C13.6505 25.602 13.9064 25.5372 14.1349 25.4133C14.3634 25.2894 14.5574 25.1105 14.6993 24.8927L21.0755 15.1045C22.2237 13.342 22.7311 11.2383 22.5127 9.14616C22.2943 7.05401 21.3634 5.1005 19.8759 3.61309ZM19.6616 14.1834L13.3906 23.81L7.11961 14.1834C5.20007 11.2366 5.61177 7.29316 8.09851 4.80631C8.79348 4.11133 9.61852 3.56004 10.5265 3.18391C11.4346 2.80779 12.4078 2.6142 13.3906 2.6142C14.3735 2.6142 15.3467 2.80779 16.2547 3.18391C17.1627 3.56004 17.9878 4.11133 18.6827 4.80631C21.1695 7.29316 21.5811 11.2366 19.6616 14.1834Z" fill="#FFC72C"/>
    <rect x="0.5" y="0.5" width="26" height="26" stroke="white"/>
</svg>
