<svg width="36" height="55" viewBox="0 0 36 55" fill="none" xmlns="http://www.w3.org/2000/svg">
<path d="M9.49561 0.1186C10.3867 -0.108071 11.3416 -0.00013257 12.1829 0.359663C12.8279 0.630537 13.4215 1.01912 13.9477 1.47914C13.9847 1.51769 14.0577 1.55675 14.1003 1.50073C14.6245 1.01809 15.2891 0.686562 15.9931 0.573484C16.8457 0.42751 17.7507 0.587362 18.4954 1.03094C19.1322 1.40358 19.6533 1.97103 19.9668 2.63871C19.9282 3.29251 19.6394 3.9129 19.2442 4.4274C18.7431 5.07658 18.0832 5.58337 17.3869 6.0069C16.5291 6.52501 15.6036 6.92078 14.6626 7.25899C14.6035 7.27595 14.5295 7.30731 14.4745 7.26516C13.5674 6.63089 12.9636 5.5695 12.9147 4.4603C12.8438 3.54385 13.1532 2.61609 13.7211 1.89753C12.4496 1.17691 10.9464 0.87417 9.49612 1.05098C9.49612 0.740532 9.49715 0.429566 9.49561 0.1186ZM15.8364 0.986734C14.9406 1.18925 14.1332 1.86566 13.8835 2.76464C13.7401 3.2519 13.8012 3.77309 13.9678 4.24596C13.9847 3.79057 14.0726 3.33517 14.3023 2.93631C14.3907 3.06378 14.4909 3.18714 14.6276 3.26578C15.0239 3.49965 15.5013 3.50067 15.9464 3.46264C16.5266 3.3804 17.1032 3.16966 17.5519 2.78417C17.8083 2.56212 18.019 2.23728 17.9578 1.88314C18.5083 2.14322 19.0109 2.56264 19.257 3.13009C19.2164 2.38171 18.7149 1.71609 18.0904 1.33265C17.4244 0.926597 16.5934 0.794501 15.8364 0.986734ZM17.0729 4.05322C16.8658 4.07789 16.6299 4.15859 16.5461 4.36881C16.5101 4.49628 16.6134 4.60422 16.7106 4.66949C17.0102 4.85145 17.4213 4.84477 17.7086 4.6402C17.8119 4.56978 17.8751 4.41918 17.7985 4.30764C17.6413 4.0784 17.3298 4.02855 17.0729 4.05322Z" fill="#ED2027"/>
<path d="M20.4474 1.48172C21.4135 1.65905 22.3448 2.04043 23.1578 2.59246C23.8444 3.06636 24.4431 3.69652 24.7833 4.46648C25.2227 5.43176 25.2387 6.54301 24.9992 7.56329C24.6703 7.5088 24.3393 7.57716 24.0089 7.56174C21.7646 7.65683 19.5547 8.16774 17.4373 8.89967C15.3015 9.6501 13.2437 10.6257 11.3155 11.812C10.9979 12.0119 10.6777 12.2082 10.375 12.4298C12.2549 11.5807 14.1806 10.8302 16.1494 10.2129C18.3377 9.53188 20.5866 9.00761 22.8757 8.83182C25.0937 8.66529 27.3874 8.83593 29.4564 9.70561C30.3743 10.0849 31.2228 10.6159 31.9993 11.2327C33.2188 12.1954 34.3063 13.429 34.756 14.9442C35.2247 16.4687 34.9575 18.1279 34.3264 19.565C33.9286 20.4907 33.3982 21.3553 32.7902 22.1576C31.8179 21.5444 30.7268 21.1414 29.6096 20.8891C27.9434 20.5164 26.2239 20.4306 24.5233 20.5195C22.537 20.6192 20.5656 20.9585 18.6481 21.4807C19.3702 21.5316 20.0958 21.4802 20.8189 21.5095C22.0909 21.5033 23.3629 21.5254 24.6338 21.5778C26.6119 21.6719 28.609 21.8456 30.51 22.4326C31.2032 22.6536 31.8811 22.9353 32.4994 23.3218C33.2384 23.7782 33.8808 24.4053 34.2971 25.1722C34.5869 25.7165 34.792 26.3163 34.849 26.9316C34.1927 27.205 33.5437 27.497 32.891 27.7792C32.7615 27.83 32.6335 27.92 32.4875 27.8881C31.768 27.7966 31.046 27.7283 30.3275 27.6327C30.2458 27.625 30.1646 27.6044 30.0844 27.6172C29.2894 27.8732 28.499 28.1461 27.7014 28.3934C26.8976 28.2705 26.0979 28.1168 25.2962 27.9776C25.1492 27.9472 25.0089 28.0156 24.8702 28.0526C24.1887 28.2443 23.5067 28.435 22.8258 28.6267C22.7328 28.6637 22.6372 28.6247 22.5457 28.6072C21.8314 28.4515 21.115 28.305 20.4011 28.1456C20.2963 28.1174 20.1889 28.1276 20.0861 28.1564C19.3794 28.3358 18.6697 28.5023 17.9631 28.6833C17.7138 28.7645 17.4692 28.636 17.2266 28.5887C16.6274 28.4427 16.0282 28.2967 15.4305 28.1467C15.3123 28.1066 15.1905 28.1389 15.0738 28.1646C14.3533 28.3255 13.6292 28.472 12.9076 28.6303C12.8017 28.6668 12.699 28.6123 12.5977 28.5877C11.8602 28.3841 11.1248 28.1698 10.3863 27.9709C10.1597 27.975 9.93972 28.0433 9.71616 28.0768C9.13543 28.1734 8.55675 28.2829 7.97653 28.381C7.83572 28.4191 7.70261 28.3425 7.57105 28.306C6.86492 28.0752 6.16033 27.8388 5.45317 27.6131C4.68229 27.6985 3.91089 27.7874 3.14104 27.8814C3.05881 27.884 2.9699 27.9112 2.89281 27.8742C2.05666 27.5119 1.22308 27.1444 0.387957 26.7805C0.236864 25.8059 0.404402 24.7749 0.900337 23.9185C1.31302 23.1912 1.93949 22.6058 2.63225 22.1478C3.66832 21.474 4.84109 21.0428 6.02928 20.7241C8.25816 20.1376 10.5631 19.9212 12.8583 19.8004C13.5084 19.7737 14.1585 19.7454 14.8091 19.7454C17.2169 19.6966 19.6302 19.5558 22.0066 19.1487C23.1475 18.9457 24.2828 18.6892 25.3785 18.3073C26.3215 17.9727 27.2502 17.5517 28.0339 16.92C28.5499 16.4949 29.0057 15.9558 29.1928 15.303C29.4225 14.5526 29.2277 13.6968 28.7359 13.0928C29.0766 13.7379 29.1609 14.5443 28.8521 15.2187C28.5715 15.8293 28.0303 16.2729 27.4604 16.6034C26.4099 17.2012 25.2263 17.5055 24.0525 17.7517C22.0601 18.1423 20.0311 18.2955 18.0068 18.3962C17.5057 18.427 17.0031 18.4121 16.503 18.4538C14.4776 18.4728 12.4477 18.5011 10.4346 18.7452C8.34039 18.9924 6.24307 19.4144 4.3025 20.262C3.86926 20.4522 3.45504 20.6814 3.03928 20.9055C2.81829 20.0348 2.67491 19.1384 2.68879 18.2379C2.66669 16.9113 2.96887 15.578 3.57273 14.3958C4.24494 13.0692 5.29386 11.96 6.50363 11.1078C8.31778 9.82691 10.4362 9.05438 12.5746 8.51212C13.8178 8.19087 15.045 7.79407 16.2209 7.27494C17.1233 6.8658 18.0042 6.3883 18.7694 5.753C19.4077 5.23027 19.9597 4.58058 20.2834 3.81525C20.5985 3.08384 20.6576 2.24963 20.4474 1.48172ZM21.4526 10.2818C20.2855 10.5028 19.1364 10.8092 18.0068 11.1736C16.0256 11.8156 14.1009 12.6287 12.2544 13.5914C13.9149 13.5143 15.5728 13.393 17.2302 13.2614C19.583 13.064 21.9362 12.8363 24.2674 12.4544C25.1816 12.2879 26.1041 12.1255 26.9798 11.8058C27.2717 11.6804 27.6145 11.5658 27.7852 11.2769C27.8761 11.0584 27.686 10.8827 27.5282 10.766C26.8272 10.271 25.9607 10.089 25.1205 10.0125C23.8922 9.92046 22.6603 10.0608 21.4526 10.2818ZM9.69355 10.4591C8.7135 10.7182 7.78175 11.1731 6.98312 11.7986C6.79297 11.9656 6.57661 12.1301 6.48873 12.3773C6.51134 12.3959 6.55605 12.4318 6.57866 12.4503C6.98415 12.4313 7.35109 12.2303 7.72522 12.0911C8.50587 11.7631 9.27419 11.4008 10.0055 10.9731C10.2697 10.8122 10.5456 10.656 10.7517 10.4201C10.7435 10.3928 10.7276 10.3389 10.7193 10.3116C10.3735 10.3234 10.0291 10.3759 9.69355 10.4591ZM29.7977 11.2676C29.8927 11.4825 30.0649 11.648 30.2309 11.8094C30.6009 12.1538 31.0121 12.457 31.4664 12.6806C31.7285 12.8019 32.0039 12.9268 32.3 12.9155C32.4233 12.7413 32.2162 12.5773 32.1129 12.4488C31.4792 11.8423 30.6559 11.4362 29.7977 11.2676ZM6.82843 14.0638C5.79853 14.6266 4.82876 15.3421 4.10721 16.2775C3.76083 16.7417 3.45556 17.2572 3.33222 17.8293C4.15809 16.5762 5.37043 15.6474 6.59665 14.8137C7.4806 14.219 8.39846 13.6767 9.30708 13.1206C8.43855 13.3041 7.61062 13.6485 6.82843 14.0638ZM23.0319 15.3482C22.3879 15.4181 21.7466 15.5132 21.1042 15.6001C16.4948 16.2868 11.907 17.1097 7.31511 17.9043C7.08025 17.949 6.84076 17.9696 6.61258 18.0441C6.87622 17.9973 7.14398 18.0261 7.41019 18.0184C10.872 18.0292 14.3435 17.8036 17.7503 17.1667C19.842 16.773 21.909 16.2241 23.8958 15.4551C23.9775 15.4243 24.053 15.378 24.1065 15.3061C23.7478 15.2598 23.3891 15.322 23.0319 15.3482ZM12.4425 21.8739C10.1705 22.1365 7.90921 22.6063 5.77643 23.4467C4.93565 23.7921 4.10207 24.1771 3.35688 24.7024C5.30722 24.0697 7.30895 23.6117 9.31427 23.1892C11.705 22.688 14.1123 22.2697 16.4994 21.7495C15.1478 21.6385 13.789 21.7469 12.4425 21.8739ZM15.7075 22.5159C14.4504 22.6397 13.2062 22.8731 11.9784 23.1671C9.80558 23.6816 7.69233 24.4079 5.55339 25.0416C4.49522 25.3392 3.42729 25.6399 2.32698 25.7242C2.17743 25.7365 2.03405 25.7813 1.89683 25.8383C1.88039 25.8656 1.84801 25.9206 1.83208 25.9483C1.98369 26.1621 2.23242 26.2649 2.46215 26.3708C3.05007 26.6175 3.66524 26.7923 4.28349 26.9439C5.24144 27.1603 6.21892 27.3315 7.20462 27.3222C7.93953 27.2775 8.67598 27.3037 9.4114 27.3248C10.782 27.3829 12.1527 27.4471 13.5248 27.4774C15.8282 27.5088 18.1527 27.4456 20.4114 26.9537C20.6463 26.8925 20.8899 26.8468 21.1083 26.7378C21.1556 26.727 21.1987 26.6427 21.1427 26.6186C20.9464 26.5214 20.7213 26.505 20.508 26.4731C18.8182 26.2839 17.1089 26.2696 15.4315 25.973C15.0882 25.882 14.675 25.8532 14.4319 25.5633C14.3492 25.3022 14.6544 25.1506 14.8369 25.0385C15.8067 24.5379 16.8669 24.2429 17.9214 23.9782C20.8148 23.3084 23.7822 23.0201 26.7429 22.8608C26.2788 22.7816 25.8086 22.7482 25.3415 22.6916C23.3094 22.501 21.2691 22.4023 19.2278 22.4125C18.054 22.4192 16.8761 22.3807 15.7075 22.5159ZM28.6578 23.2473C28.6141 23.3912 28.775 23.5151 28.8562 23.6235C29.4112 24.1766 30.0675 24.6155 30.7263 25.0349C31.3117 25.3947 31.9145 25.735 32.5621 25.9694C32.799 26.0496 33.0544 26.121 33.3057 26.0706C33.4609 26.028 33.5226 25.8368 33.4815 25.6934C33.4147 25.403 33.188 25.1881 32.9686 25.0036C32.411 24.5662 31.7619 24.2665 31.1159 23.9864C30.4072 23.6909 29.6851 23.4267 28.9492 23.2098C28.8577 23.2 28.7169 23.1578 28.6578 23.2473Z" fill="#EE727C"/>
<path d="M0 27.3124C0.186554 27.3556 0.352551 27.4522 0.528312 27.5242C1.25294 27.8393 1.97603 28.1585 2.70066 28.4741C3.55634 28.4124 4.41048 28.2659 5.26668 28.1996C6.07764 28.4448 6.87422 28.7388 7.68622 28.9803C8.48948 28.8508 9.28966 28.7007 10.0919 28.5625C10.2389 28.5337 10.3797 28.5979 10.5184 28.636C11.2323 28.8318 11.9436 29.0389 12.6574 29.2332C13.4463 29.0682 14.2351 28.8991 15.023 28.728C15.1196 28.7033 15.2198 28.7115 15.3159 28.7372C16.0082 28.9151 16.7045 29.078 17.3978 29.2543C17.514 29.2821 17.6352 29.3216 17.755 29.2841C18.4935 29.1001 19.2335 28.9228 19.9715 28.7362C20.1786 28.6735 20.3858 28.7634 20.5882 28.8015C21.188 28.9289 21.7877 29.0549 22.3864 29.1865C22.4743 29.1993 22.5643 29.2425 22.6552 29.2281C23.4256 29.006 24.1996 28.7948 24.971 28.5748C25.1534 28.5229 25.3384 28.5964 25.5198 28.6221C26.2039 28.7372 26.8858 28.8662 27.5704 28.9783C27.8417 28.9274 28.1002 28.8143 28.3649 28.7326C28.922 28.5609 29.4704 28.3594 30.03 28.197C30.8194 28.2782 31.6093 28.3718 32.3971 28.4705C32.4706 28.4756 32.5503 28.4936 32.6202 28.4581C33.5129 28.0639 34.4112 27.681 35.3039 27.2857C34.9154 29.8135 34.4903 32.3367 34.0905 34.8635C33.3104 39.6812 32.5364 44.4998 31.7568 49.318C31.6874 49.6624 31.6869 50.0253 31.5404 50.3506C31.2593 51.0306 30.6822 51.5308 30.0871 51.9358C28.9893 52.6554 27.739 53.099 26.484 53.4587C25.3076 53.7831 24.1076 54.0164 22.8988 54.183C20.3277 54.5345 17.7221 54.6039 15.133 54.4549C12.6322 54.2904 10.1248 53.9316 7.74121 53.1329C7.05769 52.8944 6.3824 52.6225 5.74771 52.2714C5.24509 51.9892 4.75686 51.668 4.35652 51.2496C3.9572 50.8538 3.64474 50.3398 3.59437 49.7703C2.51822 43.0201 1.43847 36.2698 0.362315 29.5195C0.238973 28.784 0.138245 28.0454 0 27.3124ZM0.751868 28.25C0.815081 28.8123 0.928658 29.3684 1.0078 29.9287C2.07162 36.5761 3.13184 43.2246 4.19206 49.8726C4.22701 50.0679 4.319 50.2473 4.42127 50.4159C4.76714 50.9463 5.29237 51.3257 5.82479 51.6521C5.62745 48.271 5.22402 44.9049 4.73631 41.5542C4.11549 37.343 3.33176 33.157 2.44267 28.9952C1.8825 28.7393 1.31461 28.5008 0.751868 28.25ZM30.3209 28.8061C29.5803 34.11 28.9158 39.4252 28.3274 44.7481C28.054 47.3294 27.7857 49.9117 27.6012 52.5007C28.0355 52.3362 28.4708 52.1686 28.8829 51.9527C29.161 46.8544 29.8882 41.7916 30.7505 36.7622C31.212 34.1778 31.6987 31.5976 32.2702 29.0353C31.6216 28.9459 30.9705 28.8811 30.3209 28.8061ZM5.57862 28.9063C6.10231 32.7916 6.61418 36.6789 7.07054 40.5729C7.50121 44.2166 7.89744 47.865 8.20117 51.521C8.2356 51.9147 8.24126 52.3197 8.30601 52.7052C8.78704 52.8687 9.28246 52.9987 9.77788 53.1144C9.76863 51.5852 9.64529 50.0602 9.53223 48.5362C9.3873 46.7738 9.22131 45.0128 9.03732 43.2539C8.55937 38.6624 7.9956 34.0802 7.40048 29.5026C6.79405 29.3016 6.18814 29.0986 5.57862 28.9063ZM25.3806 29.1803C24.9078 34.6183 24.493 40.0615 24.1204 45.5078C23.9508 48.1615 23.7807 50.8163 23.6898 53.4742C24.1086 53.4181 24.5228 53.3308 24.9365 53.246C24.9525 51.6937 25.0702 50.1445 25.1848 48.5969C25.4042 45.8681 25.6858 43.145 25.9865 40.4244C26.3257 37.4031 26.688 34.385 27.078 31.3704C27.1418 30.75 27.2569 30.1358 27.3067 29.5144C26.6633 29.4106 26.023 29.2903 25.3806 29.1803ZM10.5102 29.2343C10.9414 34.571 11.3793 39.9073 11.7318 45.2498C11.9199 48.0248 12.0833 50.8019 12.1897 53.5816C12.663 53.6397 13.1353 53.707 13.6102 53.7528C13.5799 51.4321 13.4617 49.1135 13.3558 46.7953C13.0773 41.1126 12.7288 35.434 12.3778 29.7554C11.7555 29.5822 11.1352 29.4008 10.5102 29.2343ZM20.4125 29.3823C20.3369 31.9301 20.2367 34.478 20.1524 37.0259C19.9541 42.6541 19.7613 48.2823 19.5619 53.9105C20.08 53.889 20.598 53.8535 21.115 53.8052C21.1335 52.0504 21.208 50.2967 21.2851 48.5434C21.576 42.2809 21.9501 36.0226 22.3484 29.7662C21.7204 29.6295 21.0919 29.4954 20.4634 29.3628C20.451 29.3679 20.4253 29.3771 20.4125 29.3823ZM15.4562 29.3663C15.6828 36.1351 15.9249 42.9039 16.1613 49.6727C16.2076 51.0882 16.2656 52.5027 16.3006 53.9183C16.6495 53.9789 17.0072 53.9388 17.3603 53.9501C17.3572 45.9102 17.3634 37.8704 17.3572 29.8305C16.722 29.6835 16.0899 29.5205 15.4562 29.3663Z" fill="#27A9E1"/>
</svg>
