<svg width="22" height="23" viewBox="0 0 22 23" fill="none"
    xmlns="http://www.w3.org/2000/svg">
    <path d="M21.2847 20.5308L14.5455 13.6832C15.5913 12.3095 16.157 10.6299 16.157 8.86328C16.157 6.74863 15.3448 4.76582 13.876 3.2708C12.4073 1.77578 10.4507 0.953125 8.37209 0.953125C6.29351 0.953125 4.3369 1.77842 2.86814 3.2708C1.39679 4.76318 0.587158 6.74863 0.587158 8.86328C0.587158 10.9753 1.39939 12.9634 2.86814 14.4558C4.3369 15.9508 6.29092 16.7734 8.37209 16.7734C10.1107 16.7734 11.7611 16.1986 13.1131 15.1387L19.8523 21.9836C19.872 22.0037 19.8955 22.0196 19.9213 22.0305C19.9471 22.0414 19.9748 22.047 20.0028 22.047C20.0307 22.047 20.0584 22.0414 20.0842 22.0305C20.1101 22.0196 20.1335 22.0037 20.1533 21.9836L21.2847 20.8366C21.3045 20.8165 21.3202 20.7927 21.3309 20.7665C21.3416 20.7402 21.3471 20.7121 21.3471 20.6837C21.3471 20.6553 21.3416 20.6272 21.3309 20.6009C21.3202 20.5747 21.3045 20.5508 21.2847 20.5308ZM12.4825 13.0398C11.3823 14.1552 9.92389 14.7695 8.37209 14.7695C6.82029 14.7695 5.36192 14.1552 4.26165 13.0398C3.16397 11.9219 2.55934 10.44 2.55934 8.86328C2.55934 7.28652 3.16397 5.80205 4.26165 4.68672C5.36192 3.57139 6.82029 2.95703 8.37209 2.95703C9.92389 2.95703 11.3849 3.56875 12.4825 4.68672C13.5802 5.80469 14.1848 7.28652 14.1848 8.86328C14.1848 10.44 13.5802 11.9245 12.4825 13.0398Z" fill="#FFC72C"/>
</svg>
