<svg viewBox="0 0 307 83" fill="none"
    xmlns="http://www.w3.org/2000/svg">
    <path d="M50.0525 41.625C50.0525 41.375 50.0525 40.9688 50.0525 40.4062C50.0733 39.8229 50.0837 39.2188 50.0837 38.5938C50.0837 37.9479 50.0837 37.3438 50.0837 36.7812C50.1046 36.2188 50.115 35.8229 50.115 35.5938C50.1358 35.4479 50.1879 35.2292 50.2712 34.9375C50.3546 34.625 50.4483 34.3229 50.5525 34.0312C50.6775 33.7396 50.8337 33.4896 51.0212 33.2812C51.2296 33.0521 51.4796 32.9375 51.7712 32.9375C52.4587 32.9375 53.1046 33.125 53.7087 33.5C54.3129 33.875 54.8962 34.375 55.4587 35C56.0212 35.6042 56.5525 36.2812 57.0525 37.0312C57.5733 37.7812 58.0837 38.5312 58.5837 39.2812C59.0837 40.0104 59.5733 40.7083 60.0525 41.375C60.5317 42.0208 61.0108 42.5417 61.49 42.9375C62.0108 42.7083 62.4171 42.2917 62.7087 41.6875C63.0004 41.0625 63.24 40.3542 63.4275 39.5625C63.615 38.75 63.7817 37.9167 63.9275 37.0625C64.0942 36.1875 64.3129 35.3854 64.5837 34.6562C64.8546 33.9271 65.2087 33.3333 65.6462 32.875C66.1046 32.3958 66.7296 32.1562 67.5212 32.1562C68.4587 32.1562 69.3025 32.5208 70.0525 33.25C70.8233 33.9792 71.5108 34.9062 72.115 36.0312C72.7192 37.1562 73.2296 38.4062 73.6462 39.7812C74.0837 41.1562 74.4483 42.4792 74.74 43.75C75.0317 45.0208 75.2504 46.1667 75.3962 47.1875C75.5421 48.2083 75.615 48.9375 75.615 49.375C75.615 49.5625 75.6046 49.7708 75.5837 50C75.5629 50.2083 75.5108 50.4062 75.4275 50.5938C75.3442 50.7604 75.2087 50.8958 75.0212 51C74.8337 51.0833 74.5629 51.0729 74.2087 50.9688C74.1046 50.9479 73.9796 50.8958 73.8337 50.8125C73.7087 50.7083 73.5733 50.5833 73.4275 50.4375C73.2817 50.2917 73.1567 50.1562 73.0525 50.0312C72.9483 49.8854 72.8962 49.7604 72.8962 49.6562C72.7087 48.6354 72.5004 47.5 72.2712 46.25C72.0421 45 71.7504 43.7396 71.3962 42.4688C71.0629 41.1771 70.6358 39.9271 70.115 38.7188C69.5942 37.5104 68.9483 36.4688 68.1775 35.5938C67.5733 35.9271 67.0942 36.4375 66.74 37.125C66.4067 37.7917 66.1254 38.5312 65.8962 39.3438C65.6671 40.1354 65.4587 40.9479 65.2712 41.7812C65.0837 42.6146 64.8337 43.375 64.5212 44.0625C64.2087 44.7292 63.8129 45.2812 63.3337 45.7188C62.8546 46.1562 62.2087 46.375 61.3962 46.375C60.8337 46.375 60.2817 46.1979 59.74 45.8438C59.2192 45.4688 58.7087 44.9896 58.2087 44.4062C57.7087 43.8021 57.2192 43.1458 56.74 42.4375C56.2817 41.7083 55.8233 41 55.365 40.3125C54.9275 39.6042 54.49 38.9479 54.0525 38.3438C53.6358 37.7396 53.2087 37.2604 52.7712 36.9062C52.6046 37.5521 52.4692 38.125 52.365 38.625C52.2817 39.1042 52.2087 39.5729 52.1462 40.0312C52.1046 40.4896 52.0733 40.9583 52.0525 41.4375C52.0525 41.9167 52.0525 42.4479 52.0525 43.0312C52.0525 43.9062 52.1254 44.7812 52.2712 45.6562C52.4171 46.5104 52.5733 47.3646 52.74 48.2188C52.9067 49.0729 53.0629 49.9375 53.2087 50.8125C53.3754 51.6667 53.4587 52.5312 53.4587 53.4062V53.6562C53.4171 53.7188 53.3337 53.8229 53.2087 53.9688C53.0837 54.0938 52.9483 54.2292 52.8025 54.375C52.6775 54.5208 52.5421 54.6562 52.3962 54.7812C52.2504 54.8854 52.1462 54.9583 52.0837 55C52.0629 55.0208 52.0212 55.0312 51.9587 55.0312C51.8962 55.0521 51.8337 55.0625 51.7712 55.0625C51.7296 55.0625 51.6775 55.0521 51.615 55.0312C51.5525 55.0104 51.5004 55 51.4587 55C51.3129 53.7917 51.1567 52.6458 50.99 51.5625C50.8233 50.4792 50.6671 49.4062 50.5212 48.3438C50.3962 47.2812 50.2817 46.2083 50.1775 45.125C50.0942 44.0417 50.0525 42.875 50.0525 41.625ZM86.785 46.3125C86.785 45.25 86.9204 44.1771 87.1912 43.0938C87.4829 41.9896 87.8787 40.9375 88.3787 39.9375C88.8996 38.9375 89.5246 38.0104 90.2537 37.1562C90.9829 36.2812 91.785 35.5312 92.66 34.9062C93.5558 34.2604 94.5246 33.7604 95.5662 33.4062C96.6079 33.0312 97.7017 32.8438 98.8475 32.8438C99.9933 32.8438 100.983 33.0729 101.816 33.5312C102.67 33.9688 103.379 34.5625 103.941 35.3125C104.504 36.0625 104.92 36.9271 105.191 37.9062C105.462 38.8646 105.597 39.8438 105.597 40.8438C105.597 42.5938 105.337 44.3229 104.816 46.0312C104.295 47.7188 103.525 49.2396 102.504 50.5938C101.483 51.9271 100.212 53.0104 98.6912 53.8438C97.1912 54.6562 95.4621 55.0625 93.5037 55.0625C92.3371 55.0625 91.3267 54.8021 90.4725 54.2812C89.6392 53.7396 88.9412 53.0521 88.3787 52.2188C87.8371 51.3646 87.4308 50.4271 87.16 49.4062C86.91 48.3646 86.785 47.3333 86.785 46.3125ZM89.4412 47C89.4412 47.5625 89.535 48.1562 89.7225 48.7812C89.91 49.4062 90.1704 49.9792 90.5037 50.5C90.8371 51.0208 91.2537 51.4583 91.7537 51.8125C92.2746 52.1667 92.8579 52.3438 93.5037 52.3438C94.8996 52.3438 96.1704 52.0312 97.3162 51.4062C98.4621 50.7604 99.4517 49.9375 100.285 48.9375C101.118 47.9167 101.764 46.7812 102.222 45.5312C102.681 44.2812 102.91 43.0417 102.91 41.8125C102.91 41.1042 102.889 40.375 102.847 39.625C102.806 38.875 102.67 38.1979 102.441 37.5938C102.212 36.9688 101.847 36.4688 101.347 36.0938C100.868 35.6979 100.17 35.5 99.2537 35.5C98.9621 35.5 98.5662 35.5104 98.0662 35.5312C97.5871 35.5521 97.1079 35.6146 96.6287 35.7188C96.1496 35.8021 95.7225 35.9375 95.3475 36.125C94.9933 36.3125 94.8162 36.5729 94.8162 36.9062C94.8162 36.9479 94.8475 37.0417 94.91 37.1875C94.9933 37.3125 95.0767 37.4479 95.16 37.5938C95.2433 37.7396 95.3162 37.8854 95.3787 38.0312C95.4412 38.1562 95.4725 38.2396 95.4725 38.2812C95.4725 38.3229 95.3892 38.4375 95.2225 38.625C95.0558 38.7917 94.9204 38.8958 94.8162 38.9375C93.7746 39.2083 92.8996 39.5521 92.1912 39.9688C91.5037 40.3646 90.9517 40.8854 90.535 41.5312C90.1392 42.1771 89.8579 42.9479 89.6912 43.8438C89.5246 44.7396 89.4412 45.7917 89.4412 47ZM118.83 53.6562C118.747 53.3229 118.632 52.8438 118.486 52.2188C118.361 51.5938 118.215 50.9062 118.049 50.1562C117.903 49.4062 117.757 48.625 117.611 47.8125C117.465 46.9792 117.33 46.1771 117.205 45.4062C117.08 44.6146 116.976 43.8958 116.892 43.25C116.83 42.5833 116.799 42.0417 116.799 41.625C116.799 41.4375 116.82 41.1146 116.861 40.6562C116.903 40.1979 116.965 39.7188 117.049 39.2188C117.132 38.7188 117.205 38.25 117.267 37.8125C117.351 37.375 117.424 37.0729 117.486 36.9062C117.549 36.8854 117.653 36.875 117.799 36.875C117.965 36.875 118.132 36.8646 118.299 36.8438C118.486 36.8229 118.653 36.8125 118.799 36.8125C118.965 36.7917 119.08 36.7812 119.142 36.7812C120.142 36.7812 121.09 36.9792 121.986 37.375C122.882 37.7708 123.736 38.2708 124.549 38.875C125.361 39.4792 126.153 40.1562 126.924 40.9062C127.695 41.6562 128.465 42.3854 129.236 43.0938C130.028 43.8021 130.83 44.4479 131.642 45.0312C132.455 45.5938 133.32 46.0208 134.236 46.3125C134.236 46.2083 134.236 46.0521 134.236 45.8438C134.257 45.6146 134.267 45.375 134.267 45.125C134.267 44.875 134.267 44.6458 134.267 44.4375C134.288 44.2083 134.299 44.0417 134.299 43.9375C134.299 42.625 134.215 41.3438 134.049 40.0938C133.882 38.8438 133.695 37.5938 133.486 36.3438C133.278 35.0938 133.09 33.8438 132.924 32.5938C132.757 31.3229 132.674 30.0208 132.674 28.6875C132.82 28.6875 132.997 28.6979 133.205 28.7188C133.434 28.7188 133.663 28.75 133.892 28.8125C134.122 28.8542 134.33 28.9375 134.517 29.0625C134.705 29.1667 134.83 29.3333 134.892 29.5625C134.976 31.0625 135.163 32.5729 135.455 34.0938C135.747 35.5938 136.049 37.1042 136.361 38.625C136.674 40.125 136.945 41.6354 137.174 43.1562C137.424 44.6562 137.549 46.1458 137.549 47.625C137.549 47.8958 137.538 48.1875 137.517 48.5C137.517 48.8125 137.476 49.1146 137.392 49.4062C137.33 49.6771 137.215 49.9062 137.049 50.0938C136.882 50.2812 136.632 50.375 136.299 50.375C135.215 50.375 134.215 50.1354 133.299 49.6562C132.382 49.1562 131.486 48.5417 130.611 47.8125C129.757 47.0833 128.913 46.2812 128.08 45.4062C127.267 44.5312 126.424 43.7292 125.549 43C124.695 42.2708 123.799 41.6562 122.861 41.1562C121.945 40.6562 120.955 40.4062 119.892 40.4062C119.892 41.5729 119.976 42.6979 120.142 43.7812C120.309 44.8438 120.486 45.9062 120.674 46.9688C120.882 48.0312 121.07 49.0938 121.236 50.1562C121.403 51.1979 121.486 52.2604 121.486 53.3438C121.486 53.7396 121.34 54.0104 121.049 54.1562C120.778 54.3021 120.476 54.375 120.142 54.375C119.872 54.375 119.611 54.3542 119.361 54.3125C119.132 54.25 118.955 54.0312 118.83 53.6562ZM148.781 33.375C148.781 32.9792 148.771 32.5521 148.75 32.0938C148.729 31.6354 148.76 31.2083 148.844 30.8125C148.948 30.4167 149.115 30.0938 149.344 29.8438C149.594 29.5729 149.99 29.4375 150.531 29.4375C150.927 29.9792 151.177 30.6562 151.281 31.4688C151.406 32.2604 151.49 33.1042 151.531 34C151.573 34.875 151.615 35.75 151.656 36.625C151.719 37.5 151.896 38.2708 152.188 38.9375C152.208 39.0208 152.302 39.1458 152.469 39.3125C152.656 39.4583 152.781 39.5521 152.844 39.5938C153.469 39.0521 154.031 38.4896 154.531 37.9062C155.052 37.3229 155.562 36.7604 156.062 36.2188C156.562 35.6562 157.062 35.125 157.562 34.625C158.062 34.125 158.604 33.6875 159.188 33.3125C159.792 32.9375 160.458 32.6458 161.188 32.4375C161.938 32.2083 162.781 32.0938 163.719 32.0938C163.719 32.5938 163.542 33.0938 163.188 33.5938C162.833 34.0938 162.385 34.6042 161.844 35.125C161.302 35.625 160.708 36.1458 160.062 36.6875C159.417 37.2083 158.792 37.75 158.188 38.3125C157.583 38.8542 157.042 39.4062 156.562 39.9688C156.083 40.5104 155.74 41.0625 155.531 41.625C155.885 41.7083 156.469 41.9167 157.281 42.25C158.115 42.5625 159.052 42.9583 160.094 43.4375C161.156 43.8958 162.25 44.3958 163.375 44.9375C164.5 45.4792 165.531 46.0208 166.469 46.5625C167.406 47.0833 168.167 47.5833 168.75 48.0625C169.354 48.5208 169.656 48.8958 169.656 49.1875C169.656 49.25 169.656 49.3854 169.656 49.5938C169.656 49.7812 169.635 49.9792 169.594 50.1875C169.573 50.3958 169.51 50.5833 169.406 50.75C169.302 50.8958 169.135 50.9688 168.906 50.9688C168.031 50.9479 167.208 50.7917 166.438 50.5C165.667 50.1875 164.917 49.8125 164.188 49.375C163.458 48.9167 162.729 48.4479 162 47.9688C161.292 47.4688 160.562 47 159.812 46.5625C159.062 46.1042 158.281 45.7396 157.469 45.4688C156.677 45.1771 155.812 45.0104 154.875 44.9688C154.562 45.4688 154.427 45.9583 154.469 46.4375C154.51 46.8958 154.646 47.3646 154.875 47.8438C155.125 48.3021 155.417 48.7812 155.75 49.2812C156.083 49.7604 156.375 50.2708 156.625 50.8125C156.875 51.3333 157.042 51.8854 157.125 52.4688C157.208 53.0521 157.115 53.6667 156.844 54.3125C156.802 54.375 156.719 54.4479 156.594 54.5312C156.49 54.5938 156.365 54.6667 156.219 54.75C156.094 54.8333 155.958 54.8958 155.812 54.9375C155.667 54.9792 155.573 55 155.531 55C155.26 55 154.958 54.7396 154.625 54.2188C154.312 53.6979 153.969 52.9896 153.594 52.0938C153.24 51.1979 152.865 50.1771 152.469 49.0312C152.094 47.8646 151.719 46.6667 151.344 45.4375C150.99 44.1875 150.656 42.9375 150.344 41.6875C150.052 40.4167 149.781 39.2396 149.531 38.1562C149.302 37.0521 149.115 36.0833 148.969 35.25C148.844 34.4167 148.781 33.7917 148.781 33.375ZM187.514 27.5625C187.639 27.1875 187.816 26.9688 188.045 26.9062C188.295 26.8438 188.576 26.8125 188.889 26.8125C189.368 26.8125 189.899 27.1354 190.482 27.7812C191.087 28.4062 191.701 29.25 192.326 30.3125C192.951 31.375 193.576 32.5938 194.201 33.9688C194.847 35.3438 195.462 36.7708 196.045 38.25C196.649 39.7083 197.212 41.1667 197.732 42.625C198.253 44.0833 198.701 45.4271 199.076 46.6562C199.472 47.8646 199.774 48.9167 199.982 49.8125C200.191 50.7083 200.295 51.3229 200.295 51.6562C200.295 51.9896 200.212 52.3125 200.045 52.625C199.899 52.9167 199.628 53.0625 199.232 53.0625C198.982 53.0625 198.764 52.9896 198.576 52.8438C198.41 52.6771 198.264 52.4792 198.139 52.25C198.014 52.0208 197.899 51.7917 197.795 51.5625C197.691 51.3333 197.597 51.1354 197.514 50.9688C197.43 50.7396 197.253 50.3021 196.982 49.6562C196.732 49.0104 196.462 48.3333 196.17 47.625C195.899 46.9167 195.639 46.25 195.389 45.625C195.139 45 194.962 44.5521 194.857 44.2812C193.399 44.0312 191.93 43.8021 190.451 43.5938C188.993 43.3646 187.451 43.1458 185.826 42.9375H185.482C184.732 46.1667 184.066 48.7188 183.482 50.5938C182.92 52.4688 182.441 53.8021 182.045 54.5938C181.67 55.3854 181.368 55.7083 181.139 55.5625C180.93 55.4375 180.785 54.9688 180.701 54.1562C180.639 53.3229 180.649 52.2188 180.732 50.8438C180.837 49.4688 181.014 47.9583 181.264 46.3125C181.535 44.6458 181.857 42.9062 182.232 41.0938C182.607 39.2812 183.055 37.5312 183.576 35.8438C184.118 34.1562 184.712 32.5938 185.357 31.1562C186.024 29.6979 186.743 28.5 187.514 27.5625ZM186.764 38.5625C186.764 39.3333 187.014 39.9062 187.514 40.2812C188.014 40.6354 188.618 40.8646 189.326 40.9688C190.035 41.0729 190.774 41.1146 191.545 41.0938C192.337 41.0729 193.014 41.0625 193.576 41.0625C193.576 40.2292 193.441 39.3333 193.17 38.375C192.899 37.3958 192.555 36.4271 192.139 35.4688C191.722 34.5104 191.274 33.5833 190.795 32.6875C190.337 31.7708 189.91 30.9479 189.514 30.2188C189.285 30.4479 189.035 30.875 188.764 31.5C188.514 32.1042 188.253 32.7917 187.982 33.5625C187.732 34.3125 187.503 35.0521 187.295 35.7812C187.087 36.5104 186.93 37.1042 186.826 37.5625C186.826 37.625 186.816 37.7917 186.795 38.0625C186.774 38.3125 186.764 38.4792 186.764 38.5625ZM212.184 33.8125C212.184 32.9375 212.434 32.2188 212.934 31.6562C213.455 31.0938 214.09 30.6562 214.84 30.3438C215.611 30.0104 216.434 29.7917 217.309 29.6875C218.184 29.5625 218.975 29.5 219.684 29.5C221.038 29.5 222.173 29.7708 223.09 30.3125C224.027 30.8333 224.777 31.5312 225.34 32.4062C225.923 33.2812 226.34 34.2917 226.59 35.4375C226.84 36.5833 226.965 37.75 226.965 38.9375C226.965 39.7292 226.882 40.6667 226.715 41.75C226.548 42.8125 226.298 43.9167 225.965 45.0625C225.632 46.1875 225.215 47.3125 224.715 48.4375C224.236 49.5417 223.673 50.5417 223.027 51.4375C222.382 52.3125 221.652 53.0208 220.84 53.5625C220.048 54.1042 219.173 54.375 218.215 54.375C218.027 54.375 217.798 54.125 217.527 53.625C217.277 53.1042 216.986 52.4167 216.652 51.5625C216.34 50.7083 216.007 49.7292 215.652 48.625C215.319 47.5 214.986 46.3438 214.652 45.1562C214.319 43.9479 214.007 42.7396 213.715 41.5312C213.423 40.3229 213.152 39.2083 212.902 38.1875C212.673 37.1667 212.496 36.2708 212.371 35.5C212.246 34.7292 212.184 34.1667 212.184 33.8125ZM214.777 35.5938C214.777 36.2604 214.819 37.0208 214.902 37.875C215.007 38.7292 215.152 39.6146 215.34 40.5312C215.548 41.4479 215.798 42.375 216.09 43.3125C216.402 44.2292 216.757 45.0938 217.152 45.9062C217.548 46.7188 217.996 47.4583 218.496 48.125C218.996 48.7708 219.559 49.2812 220.184 49.6562C220.892 48.6562 221.507 47.7604 222.027 46.9688C222.548 46.1771 222.975 45.3854 223.309 44.5938C223.642 43.8021 223.882 42.9583 224.027 42.0625C224.194 41.1667 224.277 40.125 224.277 38.9375C224.277 38.0833 224.225 37.25 224.121 36.4375C224.017 35.625 223.788 34.9062 223.434 34.2812C223.1 33.6354 222.621 33.125 221.996 32.75C221.371 32.3542 220.548 32.1562 219.527 32.1562C218.694 32.1562 217.882 32.2917 217.09 32.5625C216.319 32.8125 215.569 33.1458 214.84 33.5625C214.84 33.625 214.83 33.75 214.809 33.9375C214.809 34.125 214.809 34.3333 214.809 34.5625C214.809 34.7708 214.798 34.9792 214.777 35.1875C214.777 35.375 214.777 35.5104 214.777 35.5938ZM237.479 46.3125C237.479 45.25 237.614 44.1771 237.885 43.0938C238.177 41.9896 238.573 40.9375 239.073 39.9375C239.593 38.9375 240.218 38.0104 240.948 37.1562C241.677 36.2812 242.479 35.5312 243.354 34.9062C244.25 34.2604 245.218 33.7604 246.26 33.4062C247.302 33.0312 248.395 32.8438 249.541 32.8438C250.687 32.8438 251.677 33.0729 252.51 33.5312C253.364 33.9688 254.073 34.5625 254.635 35.3125C255.198 36.0625 255.614 36.9271 255.885 37.9062C256.156 38.8646 256.291 39.8438 256.291 40.8438C256.291 42.5938 256.031 44.3229 255.51 46.0312C254.989 47.7188 254.218 49.2396 253.198 50.5938C252.177 51.9271 250.906 53.0104 249.385 53.8438C247.885 54.6562 246.156 55.0625 244.198 55.0625C243.031 55.0625 242.02 54.8021 241.166 54.2812C240.333 53.7396 239.635 53.0521 239.073 52.2188C238.531 51.3646 238.125 50.4271 237.854 49.4062C237.604 48.3646 237.479 47.3333 237.479 46.3125ZM240.135 47C240.135 47.5625 240.229 48.1562 240.416 48.7812C240.604 49.4062 240.864 49.9792 241.198 50.5C241.531 51.0208 241.948 51.4583 242.448 51.8125C242.968 52.1667 243.552 52.3438 244.198 52.3438C245.593 52.3438 246.864 52.0312 248.01 51.4062C249.156 50.7604 250.145 49.9375 250.979 48.9375C251.812 47.9167 252.458 46.7812 252.916 45.5312C253.375 44.2812 253.604 43.0417 253.604 41.8125C253.604 41.1042 253.583 40.375 253.541 39.625C253.5 38.875 253.364 38.1979 253.135 37.5938C252.906 36.9688 252.541 36.4688 252.041 36.0938C251.562 35.6979 250.864 35.5 249.948 35.5C249.656 35.5 249.26 35.5104 248.76 35.5312C248.281 35.5521 247.802 35.6146 247.323 35.7188C246.843 35.8021 246.416 35.9375 246.041 36.125C245.687 36.3125 245.51 36.5729 245.51 36.9062C245.51 36.9479 245.541 37.0417 245.604 37.1875C245.687 37.3125 245.77 37.4479 245.854 37.5938C245.937 37.7396 246.01 37.8854 246.073 38.0312C246.135 38.1562 246.166 38.2396 246.166 38.2812C246.166 38.3229 246.083 38.4375 245.916 38.625C245.75 38.7917 245.614 38.8958 245.51 38.9375C244.468 39.2083 243.593 39.5521 242.885 39.9688C242.198 40.3646 241.645 40.8854 241.229 41.5312C240.833 42.1771 240.552 42.9479 240.385 43.8438C240.218 44.7396 240.135 45.7917 240.135 47Z" fill="white"/>
    <path d="M41.5 3H265.5V-3H41.5V3ZM265.5 80H41.5V86H265.5V80ZM41.5 80C20.237 80 3 62.763 3 41.5H-3C-3 66.0767 16.9233 86 41.5 86V80ZM304 41.5C304 62.763 286.763 80 265.5 80V86C290.077 86 310 66.0767 310 41.5H304ZM265.5 3C286.763 3 304 20.237 304 41.5H310C310 16.9233 290.077 -3 265.5 -3V3ZM41.5 -3C16.9233 -3 -3 16.9233 -3 41.5H3C3 20.237 20.237 3 41.5 3V-3Z" fill="white"/>
</svg>
