<svg width="209" height="322" viewBox="0 0 209 322" fill="none" xmlns="http://www.w3.org/2000/svg">
<path d="M56.0273 0.699776C61.2854 -0.637653 66.9194 -0.000782202 71.8832 2.12212C75.6888 3.72036 79.1911 6.0131 82.2962 8.72738C82.5145 8.95484 82.9451 9.18532 83.1968 8.85476C86.2897 6.00703 90.2105 4.05093 94.3647 3.38373C99.3953 2.52244 104.735 3.46562 109.129 6.08285C112.886 8.28157 115.961 11.6297 117.81 15.5692C117.583 19.4268 115.879 23.0873 113.547 26.1231C110.591 29.9534 106.697 32.9436 102.588 35.4426C97.5274 38.4996 92.0662 40.8348 86.5141 42.8303C86.1654 42.9304 85.7287 43.1154 85.4043 42.8667C80.0523 39.1243 76.4893 32.8618 76.2012 26.3172C75.7828 20.9098 77.6082 15.4358 80.9589 11.196C73.457 6.94414 64.5875 5.15787 56.0304 6.20113C56.0304 4.36937 56.0364 2.53457 56.0273 0.699776ZM93.4399 5.82204C88.1546 7.01693 83.3908 11.008 81.9171 16.3122C81.0711 19.1872 81.432 22.2624 82.4144 25.0525C82.5145 22.3655 83.033 19.6785 84.3885 17.3251C84.91 18.0773 85.5013 18.8051 86.3079 19.2691C88.6458 20.649 91.4628 20.6551 94.0888 20.4306C97.5123 19.9454 100.914 18.702 103.562 16.4275C105.075 15.1173 106.318 13.2006 105.957 11.1111C109.205 12.6457 112.17 15.1204 113.623 18.4685C113.383 14.0528 110.424 10.1255 106.74 7.86306C102.81 5.46721 97.9064 4.6878 93.4399 5.82204ZM100.736 23.9152C99.5136 24.0608 98.1217 24.5369 97.6275 25.7773C97.4152 26.5294 98.0247 27.1663 98.5978 27.5515C100.366 28.625 102.791 28.5856 104.487 27.3786C105.096 26.9631 105.469 26.0745 105.017 25.4164C104.089 24.0638 102.252 23.7697 100.736 23.9152Z" fill="#F76267"/>
<path d="M120.646 8.74252C126.346 9.78881 131.841 12.0391 136.638 15.2962C140.689 18.0924 144.222 21.8105 146.229 26.3535C148.822 32.049 148.916 38.6057 147.503 44.6257C145.562 44.3042 143.609 44.7075 141.66 44.6166C128.418 45.1776 115.379 48.1921 102.886 52.5107C90.2833 56.9385 78.142 62.6946 66.7648 69.6941C64.8908 70.8738 63.0017 72.0323 61.2156 73.3394C72.3078 68.3294 83.6698 63.9016 95.2866 60.2593C108.198 56.241 121.467 53.1476 134.973 52.1104C148.061 51.1278 161.594 52.1347 173.802 57.266C179.218 59.5042 184.224 62.637 188.806 66.2762C196.001 71.9565 202.418 79.2351 205.071 88.1755C207.836 97.1706 206.26 106.96 202.536 115.44C200.189 120.902 197.06 126.003 193.472 130.737C187.735 127.119 181.298 124.741 174.706 123.252C164.875 121.053 154.729 120.547 144.695 121.071C132.975 121.66 121.343 123.661 110.03 126.743C114.29 127.043 118.572 126.74 122.838 126.912C130.343 126.876 137.848 127.006 145.347 127.316C157.018 127.871 168.802 128.896 180.018 132.359C184.109 133.663 188.108 135.325 191.756 137.606C196.117 140.299 199.907 143.999 202.363 148.524C204.073 151.735 205.283 155.274 205.62 158.905C201.748 160.518 197.918 162.241 194.067 163.906C193.303 164.206 192.548 164.736 191.686 164.548C187.441 164.009 183.181 163.605 178.942 163.041C178.46 162.996 177.98 162.874 177.507 162.95C172.816 164.461 168.153 166.071 163.447 167.53C158.704 166.805 153.986 165.898 149.255 165.076C148.388 164.897 147.56 165.301 146.742 165.519C142.721 166.65 138.697 167.775 134.679 168.906C134.13 169.125 133.566 168.894 133.027 168.791C128.812 167.872 124.585 167.008 120.373 166.068C119.754 165.901 119.12 165.962 118.514 166.132C114.345 167.19 110.157 168.173 105.988 169.24C104.517 169.719 103.074 168.961 101.642 168.682C98.1066 167.821 94.571 166.959 91.0444 166.074C90.347 165.837 89.6283 166.028 88.94 166.18C84.6887 167.129 80.4162 167.994 76.1588 168.928C75.5342 169.143 74.9277 168.822 74.3304 168.676C69.979 167.475 65.6398 166.21 61.2824 165.037C59.9451 165.061 58.6473 165.464 57.3282 165.661C53.9017 166.232 50.4874 166.878 47.0639 167.457C46.2331 167.681 45.4477 167.229 44.6714 167.014C40.505 165.652 36.3478 164.257 32.1753 162.926C27.6269 163.429 23.0754 163.954 18.533 164.509C18.0478 164.524 17.5232 164.685 17.0684 164.467C12.1348 162.329 7.21644 160.16 2.28895 158.013C1.39745 152.263 2.38598 146.179 5.31215 141.127C7.74709 136.835 11.4435 133.381 15.531 130.679C21.6441 126.703 28.5638 124.159 35.5745 122.278C48.7256 118.818 62.3255 117.541 75.8677 116.829C79.7036 116.671 83.5394 116.504 87.3783 116.504C101.585 116.216 115.824 115.385 129.846 112.983C136.577 111.785 143.276 110.272 149.741 108.019C155.305 106.044 160.784 103.56 165.409 99.8333C168.453 97.3252 171.143 94.1439 172.246 90.2923C173.602 85.8646 172.453 80.8151 169.551 77.2516C171.561 81.0577 172.058 85.8161 170.236 89.795C168.58 93.3979 165.387 96.0151 162.024 97.9651C155.826 101.492 148.843 103.288 141.917 104.74C130.161 107.045 118.19 107.949 106.245 108.543C103.289 108.725 100.323 108.637 97.3728 108.883C85.4225 108.995 73.4449 109.162 61.5674 110.602C49.2108 112.061 36.8359 114.551 25.386 119.552C22.8297 120.674 20.3857 122.027 17.9326 123.349C16.6287 118.212 15.7827 112.922 15.8646 107.609C15.7342 99.7817 17.5172 91.9148 21.0801 84.9396C25.0464 77.1121 31.2353 70.5675 38.3733 65.5393C49.0774 57.9818 61.5765 53.4236 74.1939 50.2241C81.529 48.3286 88.7702 45.9873 95.7081 42.9243C101.033 40.5103 106.23 37.6929 110.745 33.9444C114.511 30.8601 117.768 27.0268 119.678 22.5111C121.537 18.1955 121.886 13.2734 120.646 8.74252ZM126.577 60.6657C119.691 61.9698 112.91 63.7773 106.245 65.9275C94.5558 69.7153 83.1998 74.5131 72.3048 80.1934C82.1021 79.7385 91.8843 79.0228 101.664 78.2464C115.545 77.0818 129.43 75.7383 143.185 73.485C148.579 72.5024 154.022 71.5441 159.189 69.6577C160.912 68.9177 162.934 68.2414 163.941 66.5371C164.478 65.2481 163.356 64.211 162.425 63.5225C158.289 60.602 153.176 59.5284 148.218 59.0766C140.971 58.5337 133.703 59.3616 126.577 60.6657ZM57.1948 61.712C51.4122 63.2405 45.9147 65.9244 41.2025 69.6153C40.0805 70.6009 38.8039 71.5714 38.2854 73.0301C38.4188 73.1393 38.6826 73.3516 38.816 73.4607C41.2085 73.3485 43.3736 72.1627 45.5811 71.3409C50.1872 69.406 54.7205 67.2679 59.0354 64.7447C60.594 63.7955 62.2224 62.8735 63.4383 61.4815C63.3898 61.3208 63.2958 61.0023 63.2473 60.8416C61.2066 60.9114 59.1749 61.2207 57.1948 61.712ZM175.815 66.4825C176.376 67.7501 177.392 68.7267 178.372 69.6789C180.555 71.7109 182.981 73.5002 185.661 74.8194C187.208 75.5351 188.833 76.2721 190.58 76.2054C191.307 75.1773 190.085 74.2098 189.476 73.4517C185.737 69.873 180.879 67.4772 175.815 66.4825ZM40.2897 82.9805C34.213 86.3013 28.4911 90.5228 24.2337 96.0424C22.1899 98.7809 20.3888 101.823 19.661 105.198C24.5339 97.8044 31.6871 92.3243 38.9222 87.4052C44.1377 83.8963 49.5534 80.6968 54.9145 77.4154C49.7899 78.4981 44.9049 80.53 40.2897 82.9805ZM135.895 90.5592C132.096 90.9717 128.311 91.5327 124.521 92.0452C97.3243 96.097 70.2549 100.952 43.1613 105.641C41.7756 105.905 40.3625 106.026 39.0162 106.466C40.5717 106.19 42.1516 106.36 43.7223 106.314C64.1479 106.378 84.6311 105.047 104.732 101.289C117.074 98.9659 129.27 95.727 140.992 91.19C141.475 91.0081 141.92 90.7351 142.236 90.3105C140.119 90.0376 138.003 90.4046 135.895 90.5592ZM73.4146 129.063C60.0088 130.612 46.6667 133.384 34.0826 138.343C29.1218 140.381 24.2034 142.652 19.8065 145.752C31.3141 142.018 43.1249 139.316 54.957 136.823C69.0632 133.866 83.2665 131.398 97.3516 128.329C89.3766 127.674 81.3592 128.314 73.4146 129.063ZM92.6788 132.85C85.2618 133.581 77.9206 134.958 70.6764 136.693C57.8559 139.729 45.387 144.014 32.7666 147.753C26.5231 149.509 20.222 151.283 13.7298 151.781C12.8474 151.854 12.0014 152.117 11.1918 152.454C11.0947 152.615 10.9037 152.939 10.8097 153.103C11.7042 154.365 13.1719 154.971 14.5273 155.596C17.9963 157.052 21.6259 158.083 25.2738 158.977C30.926 160.254 36.6934 161.264 42.5094 161.209C46.8456 160.946 51.1909 161.1 55.5301 161.225C63.6172 161.567 71.7044 161.946 79.8006 162.125C93.3914 162.31 107.106 161.937 120.433 159.035C121.819 158.674 123.257 158.404 124.545 157.761C124.824 157.698 125.079 157.2 124.748 157.058C123.59 156.484 122.262 156.387 121.004 156.199C111.033 155.083 100.948 154.998 91.0505 153.249C89.0249 152.712 86.5869 152.542 85.1526 150.831C84.6644 149.291 86.4656 148.396 87.5421 147.735C93.264 144.781 99.5197 143.04 105.742 141.479C122.814 137.527 140.322 135.826 157.791 134.885C155.053 134.418 152.279 134.221 149.522 133.888C137.533 132.763 125.494 132.18 113.45 132.241C106.524 132.28 99.5742 132.053 92.6788 132.85ZM169.09 137.166C168.832 138.015 169.781 138.746 170.26 139.386C173.535 142.649 177.407 145.239 181.295 147.714C184.749 149.837 188.305 151.844 192.126 153.227C193.524 153.7 195.031 154.122 196.514 153.825C197.43 153.573 197.794 152.445 197.551 151.599C197.157 149.885 195.819 148.618 194.525 147.529C191.235 144.948 187.405 143.18 183.593 141.527C179.412 139.783 175.151 138.224 170.809 136.945C170.269 136.887 169.438 136.638 169.09 137.166Z" fill="white"/>
<path d="M0 161.152C1.10073 161.407 2.08016 161.977 3.1172 162.401C7.39275 164.26 11.6592 166.144 15.9347 168.006C20.9835 167.642 26.0232 166.778 31.075 166.386C35.86 167.833 40.5601 169.568 45.3511 170.993C50.0906 170.229 54.8119 169.343 59.5453 168.527C60.4125 168.358 61.2434 168.737 62.0621 168.961C66.274 170.117 70.4707 171.339 74.6825 172.485C79.3371 171.512 83.9917 170.514 88.6402 169.504C89.2103 169.358 89.8016 169.407 90.3686 169.559C94.4531 170.608 98.5619 171.569 102.652 172.609C103.338 172.773 104.053 173.007 104.76 172.785C109.117 171.7 113.484 170.653 117.838 169.552C119.06 169.182 120.282 169.713 121.477 169.938C125.016 170.69 128.554 171.433 132.087 172.209C132.606 172.285 133.136 172.54 133.673 172.455C138.218 171.145 142.785 169.898 147.336 168.6C148.413 168.294 149.505 168.728 150.575 168.879C154.611 169.559 158.635 170.32 162.674 170.981C164.275 170.681 165.8 170.013 167.362 169.531C170.649 168.518 173.884 167.329 177.186 166.371C181.844 166.85 186.505 167.402 191.153 167.985C191.587 168.015 192.057 168.121 192.469 167.912C197.736 165.586 203.037 163.326 208.304 160.994C206.011 175.909 203.504 190.797 201.145 205.705C196.542 234.131 191.975 262.563 187.375 290.992C186.966 293.024 186.963 295.165 186.098 297.084C184.44 301.097 181.034 304.047 177.523 306.437C171.046 310.683 163.668 313.3 156.264 315.423C149.323 317.337 142.242 318.714 135.11 319.696C119.94 321.771 104.566 322.18 89.2891 321.301C74.534 320.33 59.7394 318.213 45.6755 313.5C41.6426 312.093 37.6581 310.489 33.9132 308.418C30.9477 306.753 28.067 304.857 25.7048 302.389C23.3487 300.053 21.5051 297.021 21.2079 293.66C14.8583 253.832 8.48741 214.003 2.13777 174.174C1.41002 169.834 0.815689 165.476 0 161.152ZM4.43626 166.683C4.80923 170.001 5.47937 173.283 5.94635 176.588C12.2232 215.811 18.4788 255.039 24.7345 294.264C24.9407 295.416 25.4835 296.475 26.0869 297.469C28.1276 300.599 31.2266 302.837 34.3681 304.763C33.2037 284.814 30.8233 264.953 27.9457 245.182C24.2827 220.335 19.6584 195.637 14.4125 171.081C11.1073 169.571 7.75663 168.163 4.43626 166.683ZM178.903 169.965C174.533 201.26 170.612 232.621 167.14 264.028C165.527 279.258 163.944 294.494 162.856 309.77C165.418 308.8 167.986 307.811 170.418 306.537C172.059 276.456 176.349 246.584 181.438 216.908C184.161 201.66 187.032 186.436 190.404 171.317C186.577 170.79 182.736 170.408 178.903 169.965ZM32.9156 170.556C36.0055 193.481 39.0257 216.417 41.7184 239.393C44.2595 260.892 46.5974 282.418 48.3895 303.99C48.5926 306.313 48.626 308.703 49.008 310.977C51.8463 311.942 54.7694 312.709 57.6926 313.391C57.638 304.369 56.9102 295.371 56.2431 286.379C55.388 275.98 54.4086 265.59 53.323 255.212C50.503 228.12 47.1765 201.084 43.6651 174.074C40.087 172.888 36.5119 171.691 32.9156 170.556ZM149.753 172.173C146.963 204.259 144.516 236.375 142.318 268.51C141.317 284.168 140.314 299.832 139.777 315.514C142.248 315.184 144.692 314.668 147.133 314.168C147.227 305.009 147.922 295.868 148.598 286.737C149.893 270.636 151.554 254.569 153.328 238.516C155.33 220.69 157.467 202.882 159.769 185.095C160.145 181.435 160.824 177.811 161.118 174.144C157.322 173.531 153.544 172.822 149.753 172.173ZM62.0136 172.491C64.5577 203.98 67.1412 235.466 69.2214 266.988C70.3312 283.361 71.2954 299.747 71.9231 316.148C74.7159 316.491 77.5026 316.888 80.3044 317.158C80.1255 303.465 79.4281 289.785 78.8034 276.107C77.1599 242.577 75.104 209.072 73.033 175.566C69.3608 174.544 65.7009 173.474 62.0136 172.491ZM120.44 173.365C119.994 188.398 119.403 203.431 118.906 218.464C117.735 251.672 116.598 284.881 115.421 318.089C118.478 317.962 121.535 317.752 124.585 317.467C124.694 307.114 125.134 296.766 125.589 286.421C127.305 249.471 129.513 212.544 131.863 175.63C128.157 174.823 124.449 174.032 120.74 173.249C120.667 173.28 120.516 173.334 120.44 173.365ZM91.1964 173.271C92.5337 213.208 93.9619 253.146 95.3568 293.084C95.6297 301.436 95.9723 309.782 96.1785 318.134C98.2374 318.492 100.348 318.256 102.431 318.322C102.413 270.885 102.449 223.447 102.413 176.009C98.665 175.142 94.9353 174.18 91.1964 173.271Z" fill="#ADFFBA"/>
</svg>